Patient4_TMGait_0pt2_03_right_15_GRF.mot
version=1
nRows=25
nColumns=19
inDegrees=no
endheader
time	F1x	F1y	F1z	M1x	M1y	M1z	F2x	F2y	F2z	M2x	M2y	M2z	EC1x	EC1y	EC1z	EC2x	EC2y	EC2z
32.23	18.0508	784.5011	45.862	-294.8818	-38.7486	790.6576	-1.2417	-5.2727	0.8045	-0.99789	-0.28521	-6.9292	-0.0592	0.0182	-0.0073	-0.0462	0.0165	0.9585
32.2516	17.0219	797.0283	46.7537	-299.2199	-39.6101	803.2381	-0.88456	-3.4018	0.5285	-0.61987	-0.17794	-4.5459	-0.0592	0.0182	-0.0073	-0.0462	0.0165	0.9585
32.2731	15.8172	813.5898	48.0539	-304.9271	-40.9594	819.8324	-0.58598	-1.8079	0.29783	-0.29467	-0.088065	-2.5086	-0.0592	0.0182	-0.0073	-0.0462	0.0165	0.9585
32.2947	14.479	833.1395	49.6486	-311.6596	-42.6899	839.3534	-0.36192	-0.57755	0.12205	-0.039642	-0.016326	-0.92882	-0.0592	0.0182	-0.0073	-0.0462	0.0165	0.9585
32.3163	13.0561	853.6755	51.25	-318.7524	-44.4998	859.7388	-0.21398	0.29128	-0.0010648	0.14407	0.042026	0.19727	-0.0592	0.0182	-0.0073	-0.0462	0.0165	0.9585
32.3379	11.6172	872.4798	52.4671	-325.2834	-45.9575	878.1926	-0.13414	0.84644	-0.079031	0.26406	0.091031	0.92577	-0.0592	0.0182	-0.0073	-0.0462	0.0165	0.9585
32.3594	10.297	886.439	52.9273	-330.1628	-46.617	891.5124	-0.10816	1.1472	-0.12257	0.33042	0.1346	1.3254	-0.0592	0.0182	-0.0073	-0.0462	0.0165	0.9585
32.381	9.3034	892.5792	52.4071	-332.3105	-46.157	896.6493	-0.1178	1.2428	-0.14261	0.35045	0.17168	1.4575	-0.0592	0.0182	-0.0073	-0.0462	0.0165	0.9585
32.4026	8.8477	888.8564	50.9016	-330.9455	-44.4843	891.5255	-0.1472	1.1606	-0.14894	0.32634	0.1994	1.3615	-0.0592	0.0182	-0.0073	-0.0462	0.0165	0.9585
32.4241	9.0927	874.8365	48.598	-325.8553	-41.7308	875.7211	-0.18412	0.90278	-0.15134	0.25486	0.21697	1.0471	-0.0592	0.0182	-0.0073	-0.0462	0.0165	0.9585
32.4457	10.1282	851.9206	45.8101	-317.497	-38.1945	850.6848	-0.21262	0.45247	-0.15297	0.12681	0.22064	0.49973	-0.0592	0.0182	-0.0073	-0.0462	0.0165	0.9585
32.4673	11.948	823.0605	42.9068	-306.906	-34.2642	819.4381	-0.21235	-0.22096	-0.14956	-0.071276	0.20091	-0.30362	-0.0592	0.0182	-0.0073	-0.0462	0.0165	0.9585
32.4889	14.433	792.1194	40.2394	-295.4646	-30.3475	785.9398	-0.16148	-1.1471	-0.13586	-0.35156	0.14874	-1.3861	-0.0592	0.0182	-0.0073	-0.0462	0.0165	0.9585
32.5104	17.3805	763.055	38.0864	-284.6024	-26.8013	754.2591	-0.038697	-2.3259	-0.10462	-0.71685	0.050104	-2.7411	-0.0592	0.0182	-0.0073	-0.0462	0.0165	0.9585
32.532	20.5626	739.1589	36.6285	-275.5137	-23.8839	727.788	0.17863	-3.6891	-0.048827	-1.1481	-0.10651	-4.2871	-0.0592	0.0182	-0.0073	-0.0462	0.0165	0.9585
32.5536	23.7816	722.5214	35.9444	-268.9587	-21.7343	708.6935	0.51264	-5.0611	0.03324	-1.591	-0.32429	-5.8185	-0.0592	0.0182	-0.0073	-0.0462	0.0165	0.9585
32.5751	26.8883	713.7412	36.0486	-265.1512	-20.4079	697.6359	0.97424	-6.1113	0.13526	-1.9395	-0.59318	-6.9486	-0.0592	0.0182	-0.0073	-0.0462	0.0165	0.9585
32.5967	29.7619	711.9484	36.9261	-263.7648	-19.9239	693.8086	1.5475	-6.3072	0.24193	-2.0218	-0.88245	-7.0556	-0.0592	0.0182	-0.0073	-0.0462	0.0165	0.9585
32.6183	32.3023	715.1903	38.5025	-264.0826	-20.2394	695.3298	2.1721	-4.8745	0.32631	-1.5883	-1.1348	-5.2386	-0.0592	0.0182	-0.0073	-0.0462	0.0165	0.9585
32.6399	34.4175	720.9531	40.6237	-265.1944	-21.2343	699.7592	2.7272	-0.79657	0.34137	-0.30932	-1.2528	-0.3166	-0.0592	0.0182	-0.0073	-0.0462	0.0165	0.9585
32.6614	35.9992	726.5901	43.0806	-266.1515	-22.7495	704.5217	3.0131	7.1301	0.22003	2.2077	-1.0924	9.1001	-0.0592	0.0182	-0.0073	-0.0462	0.0165	0.9585
32.683	36.906	729.5973	45.6309	-266.0652	-24.612	707.1848	2.727	20.1389	-0.12395	6.3672	-0.45188	24.4174	-0.0592	0.0182	-0.0073	-0.0462	0.0165	0.9585
32.7046	37.0005	727.8037	48.0077	-264.1756	-26.632	705.6351	1.4495	39.1896	-0.79366	12.4897	0.92103	46.6951	-0.0592	0.0182	-0.0073	-0.0462	0.0165	0.9585
32.7261	36.1987	719.5598	49.9482	-259.9208	-28.6104	698.2433	-1.2544	64.565	-1.9068	20.6803	3.2914	76.1776	-0.0592	0.0182	-0.0073	-0.0462	0.0165	0.9585
32.7477	34.4991	703.9143	51.2284	-253.0044	-30.356	684.0287	-5.3064	95.6554	-3.6236	30.7476	6.8067	112.0545	-0.0592	0.0182	-0.0073	-0.0462	0.0165	0.9585
